<mxfile host="www.draw.io" modified="2019-10-17T07:02:55.395Z" agent="Mozilla/5.0 (Windows NT 10.0; Win64; x64) AppleWebKit/537.36 (KHTML, like Gecko) Chrome/77.0.3865.90 Safari/537.36" etag="JyQWULWKfW8bhjJcSo2t" version="12.1.2" type="github" pages="1">
  <diagram name="Page-1" id="4bd5d27a-524c-7e24-5d5f-89a86ee4fca1">
    <mxGraphModel dx="3100" dy="1574" grid="1" gridSize="10" guides="1" tooltips="1" connect="1" arrows="1" fold="1" page="1" pageScale="1" pageWidth="1169" pageHeight="827" background="#ffffff" math="0" shadow="0">
      <root>
        <mxCell id="0"/>
        <mxCell id="1" parent="0"/>
        <mxCell id="9X3ZKxczfAf8_WHIXvSj-2" value="" style="edgeStyle=orthogonalEdgeStyle;rounded=0;orthogonalLoop=1;jettySize=auto;html=1;" edge="1" parent="1" target="48ef80bc37b76060-128">
          <mxGeometry relative="1" as="geometry">
            <mxPoint x="836" y="1251" as="sourcePoint"/>
          </mxGeometry>
        </mxCell>
        <mxCell id="48ef80bc37b76060-128" value="" style="verticalLabelPosition=bottom;html=1;verticalAlign=top;align=center;strokeWidth=1;shape=mxgraph.floorplan.wallU;fillColor=#000000;rounded=0;shadow=0;comic=0;fontFamily=Verdana;fontSize=12;rotation=90;" parent="1" vertex="1">
          <mxGeometry x="632" y="40" width="890" height="1352" as="geometry"/>
        </mxCell>
        <mxCell id="48ef80bc37b76060-136" value="" style="verticalLabelPosition=bottom;html=1;verticalAlign=top;align=center;strokeWidth=1;shape=mxgraph.floorplan.doorDouble;rounded=0;shadow=0;comic=0;fillColor=#FFFFFF;fontFamily=Verdana;fontSize=12;rotation=-90;" parent="1" vertex="1">
          <mxGeometry x="110" y="1291" width="160" height="85" as="geometry"/>
        </mxCell>
        <mxCell id="48ef80bc37b76060-156" value="" style="verticalLabelPosition=bottom;html=1;verticalAlign=top;align=center;strokeWidth=1;shape=mxgraph.floorplan.wall;fillColor=#000000;direction=south;rounded=0;shadow=0;comic=0;fontFamily=Verdana;fontSize=12;" parent="1" vertex="1">
          <mxGeometry x="1860" y="170" width="10" height="1003" as="geometry"/>
        </mxCell>
        <mxCell id="48ef80bc37b76060-195" value="" style="shape=rect;fillColor=#ffffff;strokeColor=#000000;shadow=0;rounded=0;comic=0;fontFamily=Verdana;fontSize=12;align=center;html=1;" parent="1" vertex="1">
          <mxGeometry x="1162" y="515" width="180" height="401" as="geometry"/>
        </mxCell>
        <mxCell id="48ef80bc37b76060-65" value="" style="shape=rect;fillColor=#ffffff;strokeColor=#000000;shadow=0;rounded=0;comic=0;fontFamily=Verdana;fontSize=12;align=center;html=1;rotation=180;" parent="1" vertex="1">
          <mxGeometry x="884" y="250" width="860" height="50" as="geometry"/>
        </mxCell>
        <mxCell id="9X3ZKxczfAf8_WHIXvSj-1" value="" style="shape=rect;fillColor=#ffffff;strokeColor=#000000;shadow=0;rounded=0;comic=0;fontFamily=Verdana;fontSize=12;align=center;html=1;" vertex="1" parent="1">
          <mxGeometry x="403" y="278" width="187" height="187" as="geometry"/>
        </mxCell>
        <mxCell id="9X3ZKxczfAf8_WHIXvSj-3" value="기둥" style="text;html=1;resizable=0;points=[];autosize=1;align=left;verticalAlign=top;spacingTop=-4;fontSize=28;fontFamily=Verdana;fontColor=#0066CC;fontStyle=1" vertex="1" parent="1">
          <mxGeometry x="461.5" y="351.5" width="70" height="40" as="geometry"/>
        </mxCell>
        <mxCell id="9X3ZKxczfAf8_WHIXvSj-4" value="" style="shape=rect;fillColor=#ffffff;strokeColor=#000000;shadow=0;rounded=0;comic=0;fontFamily=Verdana;fontSize=12;align=center;html=1;" vertex="1" parent="1">
          <mxGeometry x="982" y="515" width="180" height="401" as="geometry"/>
        </mxCell>
        <mxCell id="9X3ZKxczfAf8_WHIXvSj-5" value="" style="shape=rect;fillColor=#ffffff;strokeColor=#000000;shadow=0;rounded=0;comic=0;fontFamily=Verdana;fontSize=12;align=center;html=1;" vertex="1" parent="1">
          <mxGeometry x="802" y="515" width="180" height="401" as="geometry"/>
        </mxCell>
        <mxCell id="9X3ZKxczfAf8_WHIXvSj-6" value="" style="shape=rect;fillColor=#ffffff;strokeColor=#000000;shadow=0;rounded=0;comic=0;fontFamily=Verdana;fontSize=12;align=center;html=1;" vertex="1" parent="1">
          <mxGeometry x="622" y="515" width="180" height="401" as="geometry"/>
        </mxCell>
        <mxCell id="9X3ZKxczfAf8_WHIXvSj-7" value="" style="shape=rect;fillColor=#ffffff;strokeColor=#000000;shadow=0;rounded=0;comic=0;fontFamily=Verdana;fontSize=12;align=center;html=1;" vertex="1" parent="1">
          <mxGeometry x="1342" y="515" width="180" height="401" as="geometry"/>
        </mxCell>
        <mxCell id="4fd38086c27adbb9-28" value="ETC&lt;br&gt;Rack&lt;br&gt;단상" style="text;html=1;resizable=0;points=[];autosize=1;align=left;verticalAlign=top;spacingTop=-4;fontSize=28;fontFamily=Verdana;fontColor=#0066CC;fontStyle=1" parent="1" vertex="1">
          <mxGeometry x="822" y="680.5" width="80" height="100" as="geometry"/>
        </mxCell>
        <mxCell id="9X3ZKxczfAf8_WHIXvSj-9" value="Switch&lt;br&gt;NAS&lt;br&gt;Rack&lt;br&gt;단상" style="text;html=1;resizable=0;points=[];autosize=1;align=left;verticalAlign=top;spacingTop=-4;fontSize=28;fontFamily=Verdana;fontColor=#0066CC;fontStyle=1" vertex="1" parent="1">
          <mxGeometry x="657" y="680.5" width="110" height="140" as="geometry"/>
        </mxCell>
        <mxCell id="9X3ZKxczfAf8_WHIXvSj-12" value="HP&lt;br&gt;Rack&lt;br&gt;3상" style="text;html=1;resizable=0;points=[];autosize=1;align=left;verticalAlign=top;spacingTop=-4;fontSize=28;fontFamily=Verdana;fontColor=#0066CC;fontStyle=1" vertex="1" parent="1">
          <mxGeometry x="1362" y="680.5" width="80" height="100" as="geometry"/>
        </mxCell>
        <mxCell id="9X3ZKxczfAf8_WHIXvSj-13" value="HP&lt;br&gt;Rack&lt;br&gt;3상" style="text;html=1;resizable=0;points=[];autosize=1;align=left;verticalAlign=top;spacingTop=-4;fontSize=28;fontFamily=Verdana;fontColor=#0066CC;fontStyle=1" vertex="1" parent="1">
          <mxGeometry x="1212" y="680.5" width="80" height="100" as="geometry"/>
        </mxCell>
        <mxCell id="9X3ZKxczfAf8_WHIXvSj-14" value="HP&lt;br&gt;Rack&lt;br&gt;3상" style="text;html=1;resizable=0;points=[];autosize=1;align=left;verticalAlign=top;spacingTop=-4;fontSize=28;fontFamily=Verdana;fontColor=#0066CC;fontStyle=1" vertex="1" parent="1">
          <mxGeometry x="1032" y="680.5" width="80" height="100" as="geometry"/>
        </mxCell>
        <mxCell id="9X3ZKxczfAf8_WHIXvSj-16" value="창문" style="text;html=1;resizable=0;points=[];autosize=1;align=left;verticalAlign=top;spacingTop=-4;fontSize=28;fontFamily=Verdana;fontColor=#0066CC;fontStyle=1" vertex="1" parent="1">
          <mxGeometry x="1275" y="260" width="70" height="40" as="geometry"/>
        </mxCell>
        <mxCell id="9X3ZKxczfAf8_WHIXvSj-17" value="" style="shape=rect;fillColor=#ffffff;strokeColor=#000000;shadow=0;rounded=0;comic=0;fontFamily=Verdana;fontSize=12;align=center;html=1;rotation=-180;" vertex="1" parent="1">
          <mxGeometry x="510" y="1153" width="352" height="50" as="geometry"/>
        </mxCell>
        <mxCell id="9X3ZKxczfAf8_WHIXvSj-18" value="출입문" style="text;html=1;resizable=0;points=[];autosize=1;align=left;verticalAlign=top;spacingTop=-4;fontSize=28;fontFamily=Verdana;fontColor=#0066CC;fontStyle=1" vertex="1" parent="1">
          <mxGeometry x="590" y="1158" width="100" height="40" as="geometry"/>
        </mxCell>
        <mxCell id="9X3ZKxczfAf8_WHIXvSj-19" value="" style="shape=partialRectangle;whiteSpace=wrap;html=1;left=0;right=0;fillColor=none;strokeWidth=4;strokeColor=#0A0A0A;" vertex="1" parent="1">
          <mxGeometry x="421.5" y="483" width="1301" height="60" as="geometry"/>
        </mxCell>
        <mxCell id="9X3ZKxczfAf8_WHIXvSj-22" value="Cable Tray" style="text;html=1;resizable=0;points=[];autosize=1;align=left;verticalAlign=top;spacingTop=-4;fontSize=28;fontFamily=Verdana;fontColor=#0066CC;fontStyle=1" vertex="1" parent="1">
          <mxGeometry x="1002" y="494" width="160" height="40" as="geometry"/>
        </mxCell>
        <mxCell id="9X3ZKxczfAf8_WHIXvSj-24" style="edgeStyle=orthogonalEdgeStyle;rounded=0;orthogonalLoop=1;jettySize=auto;html=1;" edge="1" parent="1" source="9X3ZKxczfAf8_WHIXvSj-23">
          <mxGeometry relative="1" as="geometry">
            <mxPoint x="1200" y="1028" as="targetPoint"/>
          </mxGeometry>
        </mxCell>
        <mxCell id="9X3ZKxczfAf8_WHIXvSj-23" value="단상" style="text;html=1;resizable=0;points=[];autosize=1;align=left;verticalAlign=top;spacingTop=-4;fontSize=28;fontFamily=Verdana;fontColor=#0066CC;fontStyle=1" vertex="1" parent="1">
          <mxGeometry x="407" y="610.5" width="70" height="40" as="geometry"/>
        </mxCell>
        <mxCell id="9X3ZKxczfAf8_WHIXvSj-25" value="단상" style="text;html=1;resizable=0;points=[];autosize=1;align=left;verticalAlign=top;spacingTop=-4;fontSize=28;fontFamily=Verdana;fontColor=#0066CC;fontStyle=1" vertex="1" parent="1">
          <mxGeometry x="1670" y="610.5" width="70" height="40" as="geometry"/>
        </mxCell>
        <mxCell id="9X3ZKxczfAf8_WHIXvSj-27" value="" style="verticalLabelPosition=bottom;html=1;verticalAlign=top;align=center;strokeWidth=1;shape=mxgraph.floorplan.wallU;fillColor=#000000;rounded=0;shadow=0;comic=0;fontFamily=Verdana;fontSize=12;rotation=90;" vertex="1" parent="1">
          <mxGeometry x="2030" y="-10" width="1016" height="1352" as="geometry"/>
        </mxCell>
        <mxCell id="9X3ZKxczfAf8_WHIXvSj-28" value="" style="verticalLabelPosition=bottom;html=1;verticalAlign=top;align=center;strokeWidth=1;shape=mxgraph.floorplan.wall;fillColor=#000000;direction=south;rounded=0;shadow=0;comic=0;fontFamily=Verdana;fontSize=12;" vertex="1" parent="1">
          <mxGeometry x="402" y="275" width="10" height="890" as="geometry"/>
        </mxCell>
        <mxCell id="9X3ZKxczfAf8_WHIXvSj-29" value="" style="shape=partialRectangle;whiteSpace=wrap;html=1;left=0;right=0;fillColor=none;strokeWidth=4;strokeColor=#0A0A0A;" vertex="1" parent="1">
          <mxGeometry x="1889" y="488" width="1301" height="60" as="geometry"/>
        </mxCell>
        <mxCell id="9X3ZKxczfAf8_WHIXvSj-31" value="" style="shape=rect;fillColor=#ffffff;strokeColor=#000000;shadow=0;rounded=0;comic=0;fontFamily=Verdana;fontSize=12;align=center;html=1;" vertex="1" parent="1">
          <mxGeometry x="2610" y="620" width="180" height="528" as="geometry"/>
        </mxCell>
        <mxCell id="9X3ZKxczfAf8_WHIXvSj-32" value="" style="shape=rect;fillColor=#ffffff;strokeColor=#000000;shadow=0;rounded=0;comic=0;fontFamily=Verdana;fontSize=12;align=center;html=1;" vertex="1" parent="1">
          <mxGeometry x="2430" y="620" width="180" height="528" as="geometry"/>
        </mxCell>
        <mxCell id="9X3ZKxczfAf8_WHIXvSj-33" value="" style="shape=rect;fillColor=#ffffff;strokeColor=#000000;shadow=0;rounded=0;comic=0;fontFamily=Verdana;fontSize=12;align=center;html=1;" vertex="1" parent="1">
          <mxGeometry x="2250" y="620" width="180" height="528" as="geometry"/>
        </mxCell>
        <mxCell id="9X3ZKxczfAf8_WHIXvSj-34" value="" style="shape=rect;fillColor=#ffffff;strokeColor=#000000;shadow=0;rounded=0;comic=0;fontFamily=Verdana;fontSize=12;align=center;html=1;" vertex="1" parent="1">
          <mxGeometry x="2070" y="620" width="180" height="528" as="geometry"/>
        </mxCell>
        <mxCell id="9X3ZKxczfAf8_WHIXvSj-35" value="" style="shape=rect;fillColor=#ffffff;strokeColor=#000000;shadow=0;rounded=0;comic=0;fontFamily=Verdana;fontSize=12;align=center;html=1;" vertex="1" parent="1">
          <mxGeometry x="2790" y="620" width="180" height="528" as="geometry"/>
        </mxCell>
        <mxCell id="9X3ZKxczfAf8_WHIXvSj-36" value="ETC&lt;br&gt;Rack&lt;br&gt;단상" style="text;html=1;resizable=0;points=[];autosize=1;align=left;verticalAlign=top;spacingTop=-4;fontSize=28;fontFamily=Verdana;fontColor=#0066CC;fontStyle=1" vertex="1" parent="1">
          <mxGeometry x="2275" y="755.5" width="80" height="100" as="geometry"/>
        </mxCell>
        <mxCell id="9X3ZKxczfAf8_WHIXvSj-37" value="Switch&lt;br&gt;NAS&lt;br&gt;Rack&lt;br&gt;단상" style="text;html=1;resizable=0;points=[];autosize=1;align=left;verticalAlign=top;spacingTop=-4;fontSize=28;fontFamily=Verdana;fontColor=#0066CC;fontStyle=1" vertex="1" parent="1">
          <mxGeometry x="2110" y="755.5" width="110" height="140" as="geometry"/>
        </mxCell>
        <mxCell id="9X3ZKxczfAf8_WHIXvSj-38" value="HP&lt;br&gt;Rack&lt;br&gt;3상" style="text;html=1;resizable=0;points=[];autosize=1;align=left;verticalAlign=top;spacingTop=-4;fontSize=28;fontFamily=Verdana;fontColor=#0066CC;fontStyle=1" vertex="1" parent="1">
          <mxGeometry x="2815" y="755.5" width="80" height="100" as="geometry"/>
        </mxCell>
        <mxCell id="9X3ZKxczfAf8_WHIXvSj-39" value="HP&lt;br&gt;Rack&lt;br&gt;3상" style="text;html=1;resizable=0;points=[];autosize=1;align=left;verticalAlign=top;spacingTop=-4;fontSize=28;fontFamily=Verdana;fontColor=#0066CC;fontStyle=1" vertex="1" parent="1">
          <mxGeometry x="2665" y="755.5" width="80" height="100" as="geometry"/>
        </mxCell>
        <mxCell id="9X3ZKxczfAf8_WHIXvSj-40" value="HP&lt;br&gt;Rack&lt;br&gt;3상" style="text;html=1;resizable=0;points=[];autosize=1;align=left;verticalAlign=top;spacingTop=-4;fontSize=28;fontFamily=Verdana;fontColor=#0066CC;fontStyle=1" vertex="1" parent="1">
          <mxGeometry x="2485" y="755.5" width="80" height="100" as="geometry"/>
        </mxCell>
        <mxCell id="9X3ZKxczfAf8_WHIXvSj-41" value="Cable Tray" style="text;html=1;resizable=0;points=[];autosize=1;align=left;verticalAlign=top;spacingTop=-4;fontSize=28;fontFamily=Verdana;fontColor=#0066CC;fontStyle=1" vertex="1" parent="1">
          <mxGeometry x="2440" y="498" width="160" height="40" as="geometry"/>
        </mxCell>
        <mxCell id="9X3ZKxczfAf8_WHIXvSj-44" value="" style="shape=partialRectangle;whiteSpace=wrap;html=1;left=0;right=0;fillColor=none;strokeWidth=4;strokeColor=#0A0A0A;rotation=90;" vertex="1" parent="1">
          <mxGeometry x="1740" y="346.5" width="341" height="60" as="geometry"/>
        </mxCell>
        <mxCell id="9X3ZKxczfAf8_WHIXvSj-45" value="" style="shape=partialRectangle;whiteSpace=wrap;html=1;left=0;right=0;fillColor=none;strokeWidth=4;strokeColor=#0A0A0A;rotation=90;" vertex="1" parent="1">
          <mxGeometry x="3000" y="346.5" width="341" height="60" as="geometry"/>
        </mxCell>
        <mxCell id="9X3ZKxczfAf8_WHIXvSj-46" value="" style="endArrow=none;html=1;" edge="1" parent="1">
          <mxGeometry width="50" height="50" relative="1" as="geometry">
            <mxPoint x="230" y="1480" as="sourcePoint"/>
            <mxPoint x="280" y="1430" as="targetPoint"/>
          </mxGeometry>
        </mxCell>
        <mxCell id="9X3ZKxczfAf8_WHIXvSj-47" value="" style="endArrow=none;html=1;" edge="1" parent="1">
          <mxGeometry width="50" height="50" relative="1" as="geometry">
            <mxPoint x="230" y="1550" as="sourcePoint"/>
            <mxPoint x="280" y="1500" as="targetPoint"/>
          </mxGeometry>
        </mxCell>
        <mxCell id="9X3ZKxczfAf8_WHIXvSj-8" value="" style="shape=rect;fillColor=#ffffff;strokeColor=#000000;shadow=0;rounded=0;comic=0;fontFamily=Verdana;fontSize=12;align=center;html=1;rotation=90;" vertex="1" parent="1">
          <mxGeometry x="227" y="983" width="352" height="50" as="geometry"/>
        </mxCell>
        <mxCell id="9X3ZKxczfAf8_WHIXvSj-15" value="창문" style="text;html=1;resizable=0;points=[];autosize=1;align=left;verticalAlign=top;spacingTop=-4;fontSize=28;fontFamily=Verdana;fontColor=#0066CC;fontStyle=1" vertex="1" parent="1">
          <mxGeometry x="367" y="993" width="70" height="40" as="geometry"/>
        </mxCell>
        <mxCell id="9X3ZKxczfAf8_WHIXvSj-48" value="4.6M" style="text;html=1;resizable=0;points=[];autosize=1;align=left;verticalAlign=top;spacingTop=-4;fontSize=28;fontFamily=Verdana;fontColor=#0066CC;fontStyle=1" vertex="1" parent="1">
          <mxGeometry x="1022" y="1183" width="90" height="40" as="geometry"/>
        </mxCell>
        <mxCell id="9X3ZKxczfAf8_WHIXvSj-49" value="높이1750mm" style="text;html=1;resizable=0;points=[];autosize=1;align=left;verticalAlign=top;spacingTop=-4;fontSize=28;fontFamily=Verdana;fontColor=#0066CC;fontStyle=1" vertex="1" parent="1">
          <mxGeometry x="2970.5" y="844" width="200" height="40" as="geometry"/>
        </mxCell>
        <mxCell id="9X3ZKxczfAf8_WHIXvSj-50" value="너비1310mm" style="text;html=1;resizable=0;points=[];autosize=1;align=left;verticalAlign=top;spacingTop=-4;fontSize=28;fontFamily=Verdana;fontColor=#0066CC;fontStyle=1" vertex="1" parent="1">
          <mxGeometry x="1522" y="696" width="200" height="40" as="geometry"/>
        </mxCell>
        <mxCell id="9X3ZKxczfAf8_WHIXvSj-51" style="edgeStyle=orthogonalEdgeStyle;rounded=0;orthogonalLoop=1;jettySize=auto;html=1;exitX=0.5;exitY=1;exitDx=0;exitDy=0;entryX=0.143;entryY=0.01;entryDx=0;entryDy=0;entryPerimeter=0;" edge="1" parent="1" source="9X3ZKxczfAf8_WHIXvSj-8" target="9X3ZKxczfAf8_WHIXvSj-8">
          <mxGeometry relative="1" as="geometry"/>
        </mxCell>
        <mxCell id="9X3ZKxczfAf8_WHIXvSj-52" value="폭 610mm" style="text;html=1;resizable=0;points=[];autosize=1;align=left;verticalAlign=top;spacingTop=-4;fontSize=28;fontFamily=Verdana;fontColor=#0066CC;fontStyle=1" vertex="1" parent="1">
          <mxGeometry x="1352" y="930" width="160" height="40" as="geometry"/>
        </mxCell>
        <mxCell id="9X3ZKxczfAf8_WHIXvSj-53" value="3M" style="text;html=1;resizable=0;points=[];autosize=1;align=left;verticalAlign=top;spacingTop=-4;fontSize=28;fontFamily=Verdana;fontColor=#0066CC;fontStyle=1" vertex="1" parent="1">
          <mxGeometry x="290" y="651.5" width="60" height="40" as="geometry"/>
        </mxCell>
        <mxCell id="9X3ZKxczfAf8_WHIXvSj-54" value="4.6M" style="text;html=1;resizable=0;points=[];autosize=1;align=left;verticalAlign=top;spacingTop=-4;fontSize=28;fontFamily=Verdana;fontColor=#0066CC;fontStyle=1" vertex="1" parent="1">
          <mxGeometry x="2494.5" y="1198" width="90" height="40" as="geometry"/>
        </mxCell>
      </root>
    </mxGraphModel>
  </diagram>
</mxfile>
